<mxfile host="app.diagrams.net" modified="2024-03-15T10:46:33.589Z" agent="Mozilla/5.0 (Windows NT 10.0; Win64; x64) AppleWebKit/537.36 (KHTML, like Gecko) Chrome/122.0.0.0 Safari/537.36" etag="JRz6txpDwy-lbCi4t0-L" version="24.0.7" type="device">
  <diagram name="Pagina-1" id="yA-FAX1_B5yfMuy5fx6x">
    <mxGraphModel dx="2117" dy="1707" grid="1" gridSize="10" guides="1" tooltips="1" connect="1" arrows="1" fold="1" page="1" pageScale="1" pageWidth="827" pageHeight="1169" math="0" shadow="0">
      <root>
        <mxCell id="0" />
        <mxCell id="1" parent="0" />
        <mxCell id="hMLdqPmT3HCN_ug_1kss-1" value="Calciatore" style="whiteSpace=wrap;html=1;align=center;" parent="1" vertex="1">
          <mxGeometry x="130" y="-70" width="100" height="40" as="geometry" />
        </mxCell>
        <mxCell id="hMLdqPmT3HCN_ug_1kss-2" value="Ruolo" style="whiteSpace=wrap;html=1;align=center;" parent="1" vertex="1">
          <mxGeometry x="-270" y="-240" width="100" height="40" as="geometry" />
        </mxCell>
        <mxCell id="hMLdqPmT3HCN_ug_1kss-3" value="NazionalitÃ " style="whiteSpace=wrap;html=1;align=center;" parent="1" vertex="1">
          <mxGeometry x="280" y="-320" width="100" height="40" as="geometry" />
        </mxCell>
        <mxCell id="hMLdqPmT3HCN_ug_1kss-4" value="Feature" style="whiteSpace=wrap;html=1;align=center;" parent="1" vertex="1">
          <mxGeometry x="-3" y="-360" width="100" height="40" as="geometry" />
        </mxCell>
        <mxCell id="hMLdqPmT3HCN_ug_1kss-7" value="Descrizione" style="ellipse;whiteSpace=wrap;html=1;align=center;" parent="1" vertex="1">
          <mxGeometry x="-440" y="-260" width="100" height="40" as="geometry" />
        </mxCell>
        <mxCell id="hMLdqPmT3HCN_ug_1kss-8" value="&lt;u&gt;Posizione&lt;/u&gt;" style="ellipse;whiteSpace=wrap;html=1;align=center;" parent="1" vertex="1">
          <mxGeometry x="-440" y="-190" width="100" height="40" as="geometry" />
        </mxCell>
        <mxCell id="hMLdqPmT3HCN_ug_1kss-9" value="Descrizione" style="ellipse;whiteSpace=wrap;html=1;align=center;" parent="1" vertex="1">
          <mxGeometry x="-80" y="-480" width="100" height="40" as="geometry" />
        </mxCell>
        <mxCell id="hMLdqPmT3HCN_ug_1kss-10" value="&lt;u&gt;TipoFeature&lt;/u&gt;" style="ellipse;whiteSpace=wrap;html=1;align=center;" parent="1" vertex="1">
          <mxGeometry x="80" y="-480" width="100" height="40" as="geometry" />
        </mxCell>
        <mxCell id="hMLdqPmT3HCN_ug_1kss-11" value="Continente" style="ellipse;whiteSpace=wrap;html=1;align=center;" parent="1" vertex="1">
          <mxGeometry x="220" y="-440" width="100" height="40" as="geometry" />
        </mxCell>
        <mxCell id="hMLdqPmT3HCN_ug_1kss-12" value="&lt;u&gt;Nome&lt;/u&gt;" style="ellipse;whiteSpace=wrap;html=1;align=center;" parent="1" vertex="1">
          <mxGeometry x="380" y="-440" width="100" height="40" as="geometry" />
        </mxCell>
        <mxCell id="hMLdqPmT3HCN_ug_1kss-15" value="" style="endArrow=none;html=1;rounded=0;entryX=0;entryY=0.5;entryDx=0;entryDy=0;exitX=1;exitY=0.5;exitDx=0;exitDy=0;" parent="1" source="hMLdqPmT3HCN_ug_1kss-7" target="hMLdqPmT3HCN_ug_1kss-2" edge="1">
          <mxGeometry width="50" height="50" relative="1" as="geometry">
            <mxPoint x="-230" y="70" as="sourcePoint" />
            <mxPoint x="-180" y="20" as="targetPoint" />
          </mxGeometry>
        </mxCell>
        <mxCell id="hMLdqPmT3HCN_ug_1kss-16" value="" style="endArrow=none;html=1;rounded=0;entryX=0;entryY=0.5;entryDx=0;entryDy=0;exitX=1;exitY=0.5;exitDx=0;exitDy=0;" parent="1" source="hMLdqPmT3HCN_ug_1kss-8" target="hMLdqPmT3HCN_ug_1kss-2" edge="1">
          <mxGeometry width="50" height="50" relative="1" as="geometry">
            <mxPoint x="-270" y="-130" as="sourcePoint" />
            <mxPoint x="-220" y="-180" as="targetPoint" />
          </mxGeometry>
        </mxCell>
        <mxCell id="hMLdqPmT3HCN_ug_1kss-17" value="" style="endArrow=none;html=1;rounded=0;entryX=0.5;entryY=0;entryDx=0;entryDy=0;exitX=0.5;exitY=1;exitDx=0;exitDy=0;" parent="1" source="hMLdqPmT3HCN_ug_1kss-9" target="hMLdqPmT3HCN_ug_1kss-4" edge="1">
          <mxGeometry width="50" height="50" relative="1" as="geometry">
            <mxPoint x="-240" y="-210" as="sourcePoint" />
            <mxPoint x="-190" y="-260" as="targetPoint" />
          </mxGeometry>
        </mxCell>
        <mxCell id="hMLdqPmT3HCN_ug_1kss-18" value="" style="endArrow=none;html=1;rounded=0;entryX=0.5;entryY=0;entryDx=0;entryDy=0;exitX=0.5;exitY=1;exitDx=0;exitDy=0;" parent="1" source="hMLdqPmT3HCN_ug_1kss-10" target="hMLdqPmT3HCN_ug_1kss-4" edge="1">
          <mxGeometry width="50" height="50" relative="1" as="geometry">
            <mxPoint x="-230" y="-200" as="sourcePoint" />
            <mxPoint x="-180" y="-250" as="targetPoint" />
          </mxGeometry>
        </mxCell>
        <mxCell id="hMLdqPmT3HCN_ug_1kss-19" value="" style="endArrow=none;html=1;rounded=0;entryX=0.5;entryY=1;entryDx=0;entryDy=0;exitX=0.434;exitY=0.02;exitDx=0;exitDy=0;exitPerimeter=0;" parent="1" source="hMLdqPmT3HCN_ug_1kss-3" target="hMLdqPmT3HCN_ug_1kss-11" edge="1">
          <mxGeometry width="50" height="50" relative="1" as="geometry">
            <mxPoint x="140" y="-60" as="sourcePoint" />
            <mxPoint x="190" y="-110" as="targetPoint" />
          </mxGeometry>
        </mxCell>
        <mxCell id="hMLdqPmT3HCN_ug_1kss-20" value="" style="endArrow=none;html=1;rounded=0;entryX=0.5;entryY=1;entryDx=0;entryDy=0;exitX=0.5;exitY=0;exitDx=0;exitDy=0;" parent="1" source="hMLdqPmT3HCN_ug_1kss-3" target="hMLdqPmT3HCN_ug_1kss-12" edge="1">
          <mxGeometry width="50" height="50" relative="1" as="geometry">
            <mxPoint x="150" y="-50" as="sourcePoint" />
            <mxPoint x="200" y="-100" as="targetPoint" />
          </mxGeometry>
        </mxCell>
        <mxCell id="hMLdqPmT3HCN_ug_1kss-22" value="Squadra" style="whiteSpace=wrap;html=1;align=center;" parent="1" vertex="1">
          <mxGeometry x="130" y="300" width="100" height="50" as="geometry" />
        </mxCell>
        <mxCell id="hMLdqPmT3HCN_ug_1kss-23" value="TrofeoCompetizione" style="whiteSpace=wrap;html=1;align=center;" parent="1" vertex="1">
          <mxGeometry x="647" y="630" width="121" height="40" as="geometry" />
        </mxCell>
        <mxCell id="hMLdqPmT3HCN_ug_1kss-24" value="Competiione" style="whiteSpace=wrap;html=1;align=center;" parent="1" vertex="1">
          <mxGeometry x="657" y="305" width="100" height="40" as="geometry" />
        </mxCell>
        <mxCell id="hMLdqPmT3HCN_ug_1kss-26" value="Ha" style="shape=rhombus;perimeter=rhombusPerimeter;whiteSpace=wrap;html=1;align=center;" parent="1" vertex="1">
          <mxGeometry x="-60" y="-230" width="120" height="60" as="geometry" />
        </mxCell>
        <mxCell id="hMLdqPmT3HCN_ug_1kss-27" value="" style="endArrow=none;html=1;rounded=0;entryX=0;entryY=0;entryDx=0;entryDy=0;exitX=1;exitY=1;exitDx=0;exitDy=0;" parent="1" source="hMLdqPmT3HCN_ug_1kss-26" target="hMLdqPmT3HCN_ug_1kss-1" edge="1">
          <mxGeometry width="50" height="50" relative="1" as="geometry">
            <mxPoint x="40" y="-180" as="sourcePoint" />
            <mxPoint x="180" y="-120" as="targetPoint" />
          </mxGeometry>
        </mxCell>
        <mxCell id="Xq7oOQ8YefGgjCDpO06Y-8" value="1...*" style="edgeLabel;html=1;align=center;verticalAlign=middle;resizable=0;points=[];" parent="hMLdqPmT3HCN_ug_1kss-27" vertex="1" connectable="0">
          <mxGeometry x="0.6639" relative="1" as="geometry">
            <mxPoint as="offset" />
          </mxGeometry>
        </mxCell>
        <mxCell id="hMLdqPmT3HCN_ug_1kss-28" value="" style="endArrow=none;html=1;rounded=0;entryX=1;entryY=0.5;entryDx=0;entryDy=0;exitX=0;exitY=0.5;exitDx=0;exitDy=0;" parent="1" source="hMLdqPmT3HCN_ug_1kss-26" target="hMLdqPmT3HCN_ug_1kss-2" edge="1">
          <mxGeometry width="50" height="50" relative="1" as="geometry">
            <mxPoint x="10" as="sourcePoint" />
            <mxPoint x="60" y="-70" as="targetPoint" />
          </mxGeometry>
        </mxCell>
        <mxCell id="Xq7oOQ8YefGgjCDpO06Y-9" value="1...*" style="edgeLabel;html=1;align=center;verticalAlign=middle;resizable=0;points=[];" parent="hMLdqPmT3HCN_ug_1kss-28" vertex="1" connectable="0">
          <mxGeometry x="0.8526" y="-1" relative="1" as="geometry">
            <mxPoint as="offset" />
          </mxGeometry>
        </mxCell>
        <mxCell id="hMLdqPmT3HCN_ug_1kss-29" value="" style="endArrow=none;html=1;rounded=0;entryX=0.5;entryY=1;entryDx=0;entryDy=0;exitX=0.5;exitY=0;exitDx=0;exitDy=0;" parent="1" source="ZBFHr1--clZ3QpbYTYpv-1" target="hMLdqPmT3HCN_ug_1kss-3" edge="1">
          <mxGeometry width="50" height="50" relative="1" as="geometry">
            <mxPoint x="20" y="10" as="sourcePoint" />
            <mxPoint x="70" y="-60" as="targetPoint" />
          </mxGeometry>
        </mxCell>
        <mxCell id="Xq7oOQ8YefGgjCDpO06Y-11" value="1...*" style="edgeLabel;html=1;align=center;verticalAlign=middle;resizable=0;points=[];" parent="hMLdqPmT3HCN_ug_1kss-29" vertex="1" connectable="0">
          <mxGeometry x="0.6735" y="-1" relative="1" as="geometry">
            <mxPoint as="offset" />
          </mxGeometry>
        </mxCell>
        <mxCell id="hMLdqPmT3HCN_ug_1kss-30" value="" style="endArrow=none;html=1;rounded=0;entryX=0.5;entryY=1;entryDx=0;entryDy=0;exitX=0.5;exitY=0;exitDx=0;exitDy=0;" parent="1" source="ZBFHr1--clZ3QpbYTYpv-2" target="hMLdqPmT3HCN_ug_1kss-4" edge="1">
          <mxGeometry width="50" height="50" relative="1" as="geometry">
            <mxPoint x="30" y="20" as="sourcePoint" />
            <mxPoint x="80" y="-50" as="targetPoint" />
          </mxGeometry>
        </mxCell>
        <mxCell id="Xq7oOQ8YefGgjCDpO06Y-10" value="1...*" style="edgeLabel;html=1;align=center;verticalAlign=middle;resizable=0;points=[];" parent="hMLdqPmT3HCN_ug_1kss-30" vertex="1" connectable="0">
          <mxGeometry x="0.7013" y="2" relative="1" as="geometry">
            <mxPoint as="offset" />
          </mxGeometry>
        </mxCell>
        <mxCell id="hMLdqPmT3HCN_ug_1kss-34" value="Militanza" style="shape=rhombus;perimeter=rhombusPerimeter;whiteSpace=wrap;html=1;align=center;" parent="1" vertex="1">
          <mxGeometry x="120" y="110" width="120" height="60" as="geometry" />
        </mxCell>
        <mxCell id="hMLdqPmT3HCN_ug_1kss-35" value="" style="endArrow=none;html=1;rounded=0;exitX=0.5;exitY=1;exitDx=0;exitDy=0;entryX=0.5;entryY=0;entryDx=0;entryDy=0;" parent="1" source="hMLdqPmT3HCN_ug_1kss-1" target="hMLdqPmT3HCN_ug_1kss-34" edge="1">
          <mxGeometry relative="1" as="geometry">
            <mxPoint x="-30" y="80" as="sourcePoint" />
            <mxPoint x="50" y="200" as="targetPoint" />
          </mxGeometry>
        </mxCell>
        <mxCell id="Xq7oOQ8YefGgjCDpO06Y-14" value="1...*" style="edgeLabel;html=1;align=center;verticalAlign=middle;resizable=0;points=[];" parent="hMLdqPmT3HCN_ug_1kss-35" vertex="1" connectable="0">
          <mxGeometry x="-0.8038" y="-4" relative="1" as="geometry">
            <mxPoint as="offset" />
          </mxGeometry>
        </mxCell>
        <mxCell id="hMLdqPmT3HCN_ug_1kss-36" value="" style="endArrow=none;html=1;rounded=0;exitX=0.5;exitY=0;exitDx=0;exitDy=0;entryX=0.5;entryY=1;entryDx=0;entryDy=0;" parent="1" source="hMLdqPmT3HCN_ug_1kss-22" target="hMLdqPmT3HCN_ug_1kss-34" edge="1">
          <mxGeometry relative="1" as="geometry">
            <mxPoint x="290" y="325" as="sourcePoint" />
            <mxPoint x="180" y="240" as="targetPoint" />
          </mxGeometry>
        </mxCell>
        <mxCell id="Xq7oOQ8YefGgjCDpO06Y-16" value="1...*" style="edgeLabel;html=1;align=center;verticalAlign=middle;resizable=0;points=[];" parent="hMLdqPmT3HCN_ug_1kss-36" vertex="1" connectable="0">
          <mxGeometry x="-0.4064" y="-1" relative="1" as="geometry">
            <mxPoint as="offset" />
          </mxGeometry>
        </mxCell>
        <mxCell id="hMLdqPmT3HCN_ug_1kss-39" value="" style="endArrow=none;html=1;rounded=0;exitX=0;exitY=0.5;exitDx=0;exitDy=0;entryX=1;entryY=0.5;entryDx=0;entryDy=0;" parent="1" source="hMLdqPmT3HCN_ug_1kss-41" target="hMLdqPmT3HCN_ug_1kss-22" edge="1">
          <mxGeometry relative="1" as="geometry">
            <mxPoint x="353" y="255" as="sourcePoint" />
            <mxPoint x="463" y="85" as="targetPoint" />
          </mxGeometry>
        </mxCell>
        <mxCell id="Xq7oOQ8YefGgjCDpO06Y-17" value="1...*" style="edgeLabel;html=1;align=center;verticalAlign=middle;resizable=0;points=[];" parent="hMLdqPmT3HCN_ug_1kss-39" vertex="1" connectable="0">
          <mxGeometry x="0.851" y="-1" relative="1" as="geometry">
            <mxPoint as="offset" />
          </mxGeometry>
        </mxCell>
        <mxCell id="hMLdqPmT3HCN_ug_1kss-41" value="Partecipa" style="shape=rhombus;perimeter=rhombusPerimeter;whiteSpace=wrap;html=1;align=center;" parent="1" vertex="1">
          <mxGeometry x="400" y="295" width="120" height="60" as="geometry" />
        </mxCell>
        <mxCell id="hMLdqPmT3HCN_ug_1kss-43" value="" style="endArrow=none;html=1;rounded=0;exitX=0;exitY=0.5;exitDx=0;exitDy=0;entryX=1;entryY=0.5;entryDx=0;entryDy=0;" parent="1" source="hMLdqPmT3HCN_ug_1kss-24" target="hMLdqPmT3HCN_ug_1kss-41" edge="1">
          <mxGeometry relative="1" as="geometry">
            <mxPoint x="190" y="285" as="sourcePoint" />
            <mxPoint x="10" y="395" as="targetPoint" />
          </mxGeometry>
        </mxCell>
        <mxCell id="Xq7oOQ8YefGgjCDpO06Y-18" value="0...*" style="edgeLabel;html=1;align=center;verticalAlign=middle;resizable=0;points=[];" parent="hMLdqPmT3HCN_ug_1kss-43" vertex="1" connectable="0">
          <mxGeometry x="-0.7368" y="-1" relative="1" as="geometry">
            <mxPoint as="offset" />
          </mxGeometry>
        </mxCell>
        <mxCell id="hMLdqPmT3HCN_ug_1kss-44" value="VinceSquadra" style="shape=rhombus;perimeter=rhombusPerimeter;whiteSpace=wrap;html=1;align=center;" parent="1" vertex="1">
          <mxGeometry x="300" y="440" width="120" height="60" as="geometry" />
        </mxCell>
        <mxCell id="hMLdqPmT3HCN_ug_1kss-45" value="" style="endArrow=none;html=1;rounded=0;exitX=0.5;exitY=1;exitDx=0;exitDy=0;" parent="1" source="hMLdqPmT3HCN_ug_1kss-22" target="hMLdqPmT3HCN_ug_1kss-44" edge="1">
          <mxGeometry relative="1" as="geometry">
            <mxPoint x="190" y="50" as="sourcePoint" />
            <mxPoint x="320" y="420" as="targetPoint" />
          </mxGeometry>
        </mxCell>
        <mxCell id="Xq7oOQ8YefGgjCDpO06Y-19" value="0...*" style="edgeLabel;html=1;align=center;verticalAlign=middle;resizable=0;points=[];" parent="hMLdqPmT3HCN_ug_1kss-45" vertex="1" connectable="0">
          <mxGeometry x="-0.8824" y="-2" relative="1" as="geometry">
            <mxPoint as="offset" />
          </mxGeometry>
        </mxCell>
        <mxCell id="hMLdqPmT3HCN_ug_1kss-46" value="" style="endArrow=none;html=1;rounded=0;exitX=0;exitY=0.5;exitDx=0;exitDy=0;entryX=1;entryY=1;entryDx=0;entryDy=0;" parent="1" source="hMLdqPmT3HCN_ug_1kss-23" target="hMLdqPmT3HCN_ug_1kss-44" edge="1">
          <mxGeometry relative="1" as="geometry">
            <mxPoint x="200" y="270" as="sourcePoint" />
            <mxPoint x="200" y="460" as="targetPoint" />
          </mxGeometry>
        </mxCell>
        <mxCell id="ZBFHr1--clZ3QpbYTYpv-21" value="0...*" style="edgeLabel;html=1;align=center;verticalAlign=middle;resizable=0;points=[];" parent="hMLdqPmT3HCN_ug_1kss-46" vertex="1" connectable="0">
          <mxGeometry x="-0.8691" y="1" relative="1" as="geometry">
            <mxPoint as="offset" />
          </mxGeometry>
        </mxCell>
        <mxCell id="NTTpv4E5BnjP_k0sB6ZF-3" value="Nome" style="ellipse;whiteSpace=wrap;html=1;align=center;" parent="1" vertex="1">
          <mxGeometry x="80" y="-170" width="100" height="40" as="geometry" />
        </mxCell>
        <mxCell id="NTTpv4E5BnjP_k0sB6ZF-4" value="Cognome" style="ellipse;whiteSpace=wrap;html=1;align=center;" parent="1" vertex="1">
          <mxGeometry x="200" y="-160" width="100" height="40" as="geometry" />
        </mxCell>
        <mxCell id="NTTpv4E5BnjP_k0sB6ZF-5" value="Piede" style="ellipse;whiteSpace=wrap;html=1;align=center;" parent="1" vertex="1">
          <mxGeometry x="260" y="-80" width="100" height="40" as="geometry" />
        </mxCell>
        <mxCell id="NTTpv4E5BnjP_k0sB6ZF-6" value="DataNascita" style="ellipse;whiteSpace=wrap;html=1;align=center;" parent="1" vertex="1">
          <mxGeometry x="80" y="10" width="100" height="40" as="geometry" />
        </mxCell>
        <mxCell id="NTTpv4E5BnjP_k0sB6ZF-7" value="DataRitiro" style="ellipse;whiteSpace=wrap;html=1;align=center;" parent="1" vertex="1">
          <mxGeometry x="220" width="100" height="40" as="geometry" />
        </mxCell>
        <mxCell id="NTTpv4E5BnjP_k0sB6ZF-10" value="" style="endArrow=none;html=1;rounded=0;entryX=0.5;entryY=1;entryDx=0;entryDy=0;exitX=0.25;exitY=0;exitDx=0;exitDy=0;" parent="1" source="hMLdqPmT3HCN_ug_1kss-1" target="NTTpv4E5BnjP_k0sB6ZF-3" edge="1">
          <mxGeometry width="50" height="50" relative="1" as="geometry">
            <mxPoint x="190" y="50" as="sourcePoint" />
            <mxPoint x="240" as="targetPoint" />
          </mxGeometry>
        </mxCell>
        <mxCell id="NTTpv4E5BnjP_k0sB6ZF-11" value="" style="endArrow=none;html=1;rounded=0;entryX=0.5;entryY=1;entryDx=0;entryDy=0;exitX=0.75;exitY=0;exitDx=0;exitDy=0;" parent="1" source="hMLdqPmT3HCN_ug_1kss-1" target="NTTpv4E5BnjP_k0sB6ZF-4" edge="1">
          <mxGeometry width="50" height="50" relative="1" as="geometry">
            <mxPoint x="165" y="-60" as="sourcePoint" />
            <mxPoint x="130" y="-110" as="targetPoint" />
          </mxGeometry>
        </mxCell>
        <mxCell id="NTTpv4E5BnjP_k0sB6ZF-13" value="" style="endArrow=none;html=1;rounded=0;entryX=1;entryY=0.25;entryDx=0;entryDy=0;exitX=0;exitY=0.5;exitDx=0;exitDy=0;" parent="1" source="NTTpv4E5BnjP_k0sB6ZF-5" target="hMLdqPmT3HCN_ug_1kss-1" edge="1">
          <mxGeometry width="50" height="50" relative="1" as="geometry">
            <mxPoint x="175" y="-50" as="sourcePoint" />
            <mxPoint x="140" y="-100" as="targetPoint" />
          </mxGeometry>
        </mxCell>
        <mxCell id="NTTpv4E5BnjP_k0sB6ZF-14" value="" style="endArrow=none;html=1;rounded=0;entryX=1;entryY=0.75;entryDx=0;entryDy=0;exitX=0.5;exitY=0;exitDx=0;exitDy=0;" parent="1" source="NTTpv4E5BnjP_k0sB6ZF-7" target="hMLdqPmT3HCN_ug_1kss-1" edge="1">
          <mxGeometry width="50" height="50" relative="1" as="geometry">
            <mxPoint x="185" y="-40" as="sourcePoint" />
            <mxPoint x="150" y="-90" as="targetPoint" />
          </mxGeometry>
        </mxCell>
        <mxCell id="NTTpv4E5BnjP_k0sB6ZF-16" value="" style="endArrow=none;html=1;rounded=0;entryX=0.5;entryY=0;entryDx=0;entryDy=0;exitX=0.146;exitY=0.989;exitDx=0;exitDy=0;exitPerimeter=0;" parent="1" source="hMLdqPmT3HCN_ug_1kss-1" target="NTTpv4E5BnjP_k0sB6ZF-6" edge="1">
          <mxGeometry width="50" height="50" relative="1" as="geometry">
            <mxPoint x="205" y="-20" as="sourcePoint" />
            <mxPoint x="170" y="-70" as="targetPoint" />
          </mxGeometry>
        </mxCell>
        <mxCell id="Xq7oOQ8YefGgjCDpO06Y-1" value="Ha" style="shape=rhombus;perimeter=rhombusPerimeter;whiteSpace=wrap;html=1;align=center;" parent="1" vertex="1">
          <mxGeometry x="647" y="440" width="120" height="60" as="geometry" />
        </mxCell>
        <mxCell id="Xq7oOQ8YefGgjCDpO06Y-2" value="" style="endArrow=none;html=1;rounded=0;exitX=0.5;exitY=1;exitDx=0;exitDy=0;entryX=0.5;entryY=0;entryDx=0;entryDy=0;" parent="1" source="hMLdqPmT3HCN_ug_1kss-24" target="Xq7oOQ8YefGgjCDpO06Y-1" edge="1">
          <mxGeometry relative="1" as="geometry">
            <mxPoint x="657" y="265" as="sourcePoint" />
            <mxPoint x="530" y="265" as="targetPoint" />
          </mxGeometry>
        </mxCell>
        <mxCell id="Xq7oOQ8YefGgjCDpO06Y-23" value="1" style="edgeLabel;html=1;align=center;verticalAlign=middle;resizable=0;points=[];" parent="Xq7oOQ8YefGgjCDpO06Y-2" vertex="1" connectable="0">
          <mxGeometry x="-0.6893" relative="1" as="geometry">
            <mxPoint as="offset" />
          </mxGeometry>
        </mxCell>
        <mxCell id="Xq7oOQ8YefGgjCDpO06Y-3" value="" style="endArrow=none;html=1;rounded=0;exitX=0.5;exitY=1;exitDx=0;exitDy=0;entryX=0.5;entryY=0;entryDx=0;entryDy=0;" parent="1" source="Xq7oOQ8YefGgjCDpO06Y-1" target="hMLdqPmT3HCN_ug_1kss-23" edge="1">
          <mxGeometry relative="1" as="geometry">
            <mxPoint x="667" y="275" as="sourcePoint" />
            <mxPoint x="540" y="275" as="targetPoint" />
          </mxGeometry>
        </mxCell>
        <mxCell id="Xq7oOQ8YefGgjCDpO06Y-22" value="1" style="edgeLabel;html=1;align=center;verticalAlign=middle;resizable=0;points=[];" parent="Xq7oOQ8YefGgjCDpO06Y-3" vertex="1" connectable="0">
          <mxGeometry x="0.8083" y="-1" relative="1" as="geometry">
            <mxPoint as="offset" />
          </mxGeometry>
        </mxCell>
        <mxCell id="Xq7oOQ8YefGgjCDpO06Y-4" value="TrofeoCalciatore" style="whiteSpace=wrap;html=1;align=center;" parent="1" vertex="1">
          <mxGeometry x="-410" y="-70" width="100" height="40" as="geometry" />
        </mxCell>
        <mxCell id="Xq7oOQ8YefGgjCDpO06Y-5" value="" style="endArrow=none;html=1;rounded=0;exitX=0;exitY=0.5;exitDx=0;exitDy=0;entryX=1;entryY=0.5;entryDx=0;entryDy=0;" parent="1" source="Xq7oOQ8YefGgjCDpO06Y-6" target="Xq7oOQ8YefGgjCDpO06Y-4" edge="1">
          <mxGeometry relative="1" as="geometry">
            <mxPoint x="-367" y="10" as="sourcePoint" />
            <mxPoint x="-490" y="10" as="targetPoint" />
          </mxGeometry>
        </mxCell>
        <mxCell id="Xq7oOQ8YefGgjCDpO06Y-13" value="0...*" style="edgeLabel;html=1;align=center;verticalAlign=middle;resizable=0;points=[];" parent="Xq7oOQ8YefGgjCDpO06Y-5" vertex="1" connectable="0">
          <mxGeometry x="0.7553" y="1" relative="1" as="geometry">
            <mxPoint as="offset" />
          </mxGeometry>
        </mxCell>
        <mxCell id="Xq7oOQ8YefGgjCDpO06Y-6" value="VinceCalciatore" style="shape=rhombus;perimeter=rhombusPerimeter;whiteSpace=wrap;html=1;align=center;" parent="1" vertex="1">
          <mxGeometry x="-200" y="-80" width="120" height="60" as="geometry" />
        </mxCell>
        <mxCell id="Xq7oOQ8YefGgjCDpO06Y-7" value="" style="endArrow=none;html=1;rounded=0;exitX=0;exitY=0.5;exitDx=0;exitDy=0;entryX=1;entryY=0.5;entryDx=0;entryDy=0;" parent="1" source="hMLdqPmT3HCN_ug_1kss-1" target="Xq7oOQ8YefGgjCDpO06Y-6" edge="1">
          <mxGeometry relative="1" as="geometry">
            <mxPoint x="-620" as="sourcePoint" />
            <mxPoint x="-80" y="-50" as="targetPoint" />
          </mxGeometry>
        </mxCell>
        <mxCell id="Xq7oOQ8YefGgjCDpO06Y-12" value="0...*" style="edgeLabel;html=1;align=center;verticalAlign=middle;resizable=0;points=[];" parent="Xq7oOQ8YefGgjCDpO06Y-7" vertex="1" connectable="0">
          <mxGeometry x="-0.6798" y="-1" relative="1" as="geometry">
            <mxPoint as="offset" />
          </mxGeometry>
        </mxCell>
        <mxCell id="Xq7oOQ8YefGgjCDpO06Y-24" value="Stagione" style="ellipse;whiteSpace=wrap;html=1;align=center;" parent="1" vertex="1">
          <mxGeometry x="-190" y="-10" width="100" height="40" as="geometry" />
        </mxCell>
        <mxCell id="Xq7oOQ8YefGgjCDpO06Y-25" value="" style="endArrow=none;html=1;rounded=0;entryX=0.5;entryY=1;entryDx=0;entryDy=0;exitX=0.5;exitY=0;exitDx=0;exitDy=0;" parent="1" source="Xq7oOQ8YefGgjCDpO06Y-24" target="Xq7oOQ8YefGgjCDpO06Y-6" edge="1">
          <mxGeometry width="50" height="50" relative="1" as="geometry">
            <mxPoint x="-303" y="-140" as="sourcePoint" />
            <mxPoint x="-233" y="-190" as="targetPoint" />
          </mxGeometry>
        </mxCell>
        <mxCell id="Xq7oOQ8YefGgjCDpO06Y-26" value="&lt;u&gt;Nome&lt;/u&gt;" style="ellipse;whiteSpace=wrap;html=1;align=center;" parent="1" vertex="1">
          <mxGeometry x="-560" y="-100" width="100" height="40" as="geometry" />
        </mxCell>
        <mxCell id="Xq7oOQ8YefGgjCDpO06Y-28" value="Descrizione" style="ellipse;whiteSpace=wrap;html=1;align=center;" parent="1" vertex="1">
          <mxGeometry x="-560" y="-40" width="100" height="40" as="geometry" />
        </mxCell>
        <mxCell id="Xq7oOQ8YefGgjCDpO06Y-31" value="" style="endArrow=none;html=1;rounded=0;entryX=1;entryY=0.5;entryDx=0;entryDy=0;exitX=0;exitY=0.5;exitDx=0;exitDy=0;" parent="1" source="Xq7oOQ8YefGgjCDpO06Y-4" target="Xq7oOQ8YefGgjCDpO06Y-26" edge="1">
          <mxGeometry width="50" height="50" relative="1" as="geometry">
            <mxPoint x="-110.00000000000001" y="20" as="sourcePoint" />
            <mxPoint x="-110.00000000000001" y="-10" as="targetPoint" />
          </mxGeometry>
        </mxCell>
        <mxCell id="Xq7oOQ8YefGgjCDpO06Y-32" value="" style="endArrow=none;html=1;rounded=0;entryX=1;entryY=0.5;entryDx=0;entryDy=0;exitX=0;exitY=0.5;exitDx=0;exitDy=0;" parent="1" source="Xq7oOQ8YefGgjCDpO06Y-4" target="Xq7oOQ8YefGgjCDpO06Y-28" edge="1">
          <mxGeometry width="50" height="50" relative="1" as="geometry">
            <mxPoint x="-100" y="30" as="sourcePoint" />
            <mxPoint x="-100" as="targetPoint" />
          </mxGeometry>
        </mxCell>
        <mxCell id="Xq7oOQ8YefGgjCDpO06Y-33" value="&lt;u&gt;idCalciatore&lt;/u&gt;" style="ellipse;whiteSpace=wrap;html=1;align=center;" parent="1" vertex="1">
          <mxGeometry x="-30" y="-110" width="100" height="40" as="geometry" />
        </mxCell>
        <mxCell id="Xq7oOQ8YefGgjCDpO06Y-35" value="" style="endArrow=none;html=1;rounded=0;entryX=0.5;entryY=1;entryDx=0;entryDy=0;exitX=0;exitY=0;exitDx=0;exitDy=0;" parent="1" source="hMLdqPmT3HCN_ug_1kss-1" target="Xq7oOQ8YefGgjCDpO06Y-33" edge="1">
          <mxGeometry width="50" height="50" relative="1" as="geometry">
            <mxPoint x="130" y="-70" as="sourcePoint" />
            <mxPoint x="130" y="-110" as="targetPoint" />
          </mxGeometry>
        </mxCell>
        <mxCell id="Xq7oOQ8YefGgjCDpO06Y-37" value="idSquadra" style="ellipse;whiteSpace=wrap;html=1;align=center;fontStyle=4;" parent="1" vertex="1">
          <mxGeometry x="-10" y="250" width="100" height="40" as="geometry" />
        </mxCell>
        <mxCell id="Xq7oOQ8YefGgjCDpO06Y-40" value="Nome" style="ellipse;whiteSpace=wrap;html=1;align=center;" parent="1" vertex="1">
          <mxGeometry x="-30" y="360" width="100" height="40" as="geometry" />
        </mxCell>
        <mxCell id="Xq7oOQ8YefGgjCDpO06Y-41" value="AnnoFondazione" style="ellipse;whiteSpace=wrap;html=1;align=center;" parent="1" vertex="1">
          <mxGeometry x="-60" y="305" width="100" height="40" as="geometry" />
        </mxCell>
        <mxCell id="Xq7oOQ8YefGgjCDpO06Y-42" value="" style="endArrow=none;html=1;rounded=0;entryX=1;entryY=0.5;entryDx=0;entryDy=0;exitX=0;exitY=0;exitDx=0;exitDy=0;" parent="1" source="hMLdqPmT3HCN_ug_1kss-22" target="Xq7oOQ8YefGgjCDpO06Y-37" edge="1">
          <mxGeometry width="50" height="50" relative="1" as="geometry">
            <mxPoint x="140" y="90" as="sourcePoint" />
            <mxPoint x="110" y="120" as="targetPoint" />
          </mxGeometry>
        </mxCell>
        <mxCell id="Xq7oOQ8YefGgjCDpO06Y-43" value="" style="endArrow=none;html=1;rounded=0;entryX=1;entryY=0.5;entryDx=0;entryDy=0;exitX=0;exitY=0.5;exitDx=0;exitDy=0;" parent="1" source="hMLdqPmT3HCN_ug_1kss-22" target="Xq7oOQ8YefGgjCDpO06Y-41" edge="1">
          <mxGeometry width="50" height="50" relative="1" as="geometry">
            <mxPoint x="150" y="100" as="sourcePoint" />
            <mxPoint x="120" y="130" as="targetPoint" />
          </mxGeometry>
        </mxCell>
        <mxCell id="Xq7oOQ8YefGgjCDpO06Y-45" value="" style="endArrow=none;html=1;rounded=0;entryX=0.576;entryY=-0.034;entryDx=0;entryDy=0;exitX=0;exitY=1;exitDx=0;exitDy=0;entryPerimeter=0;" parent="1" source="hMLdqPmT3HCN_ug_1kss-22" target="Xq7oOQ8YefGgjCDpO06Y-40" edge="1">
          <mxGeometry width="50" height="50" relative="1" as="geometry">
            <mxPoint x="170" y="120" as="sourcePoint" />
            <mxPoint x="140" y="150" as="targetPoint" />
          </mxGeometry>
        </mxCell>
        <mxCell id="Xq7oOQ8YefGgjCDpO06Y-46" value="" style="endArrow=none;html=1;rounded=0;exitX=0;exitY=0.5;exitDx=0;exitDy=0;entryX=1;entryY=0.5;entryDx=0;entryDy=0;" parent="1" source="hMLdqPmT3HCN_ug_1kss-44" target="Xq7oOQ8YefGgjCDpO06Y-47" edge="1">
          <mxGeometry width="50" height="50" relative="1" as="geometry">
            <mxPoint x="180" y="60" as="sourcePoint" />
            <mxPoint x="210" y="480" as="targetPoint" />
          </mxGeometry>
        </mxCell>
        <mxCell id="Xq7oOQ8YefGgjCDpO06Y-47" value="Stagione" style="ellipse;whiteSpace=wrap;html=1;align=center;" parent="1" vertex="1">
          <mxGeometry x="160" y="450" width="100" height="40" as="geometry" />
        </mxCell>
        <mxCell id="Xq7oOQ8YefGgjCDpO06Y-50" value="" style="endArrow=none;html=1;rounded=0;exitX=0.5;exitY=1;exitDx=0;exitDy=0;entryX=0.5;entryY=0;entryDx=0;entryDy=0;" parent="1" source="Xq7oOQ8YefGgjCDpO06Y-51" target="hMLdqPmT3HCN_ug_1kss-41" edge="1">
          <mxGeometry width="50" height="50" relative="1" as="geometry">
            <mxPoint x="560" y="180" as="sourcePoint" />
            <mxPoint x="480" y="180" as="targetPoint" />
          </mxGeometry>
        </mxCell>
        <mxCell id="Xq7oOQ8YefGgjCDpO06Y-51" value="Stagione" style="ellipse;whiteSpace=wrap;html=1;align=center;" parent="1" vertex="1">
          <mxGeometry x="410" y="240" width="100" height="40" as="geometry" />
        </mxCell>
        <mxCell id="Xq7oOQ8YefGgjCDpO06Y-52" value="&lt;u&gt;Nome&lt;/u&gt;" style="ellipse;whiteSpace=wrap;html=1;align=center;" parent="1" vertex="1">
          <mxGeometry x="582" y="230" width="100" height="40" as="geometry" />
        </mxCell>
        <mxCell id="Xq7oOQ8YefGgjCDpO06Y-54" value="" style="endArrow=none;html=1;rounded=0;exitX=0.5;exitY=1;exitDx=0;exitDy=0;entryX=0.25;entryY=0;entryDx=0;entryDy=0;" parent="1" source="Xq7oOQ8YefGgjCDpO06Y-52" target="hMLdqPmT3HCN_ug_1kss-24" edge="1">
          <mxGeometry width="50" height="50" relative="1" as="geometry">
            <mxPoint x="470" y="210" as="sourcePoint" />
            <mxPoint x="470" y="235" as="targetPoint" />
          </mxGeometry>
        </mxCell>
        <mxCell id="Xq7oOQ8YefGgjCDpO06Y-58" value="&lt;u&gt;Nome&lt;/u&gt;" style="ellipse;whiteSpace=wrap;html=1;align=center;" parent="1" vertex="1">
          <mxGeometry x="710" y="700" width="100" height="40" as="geometry" />
        </mxCell>
        <mxCell id="Xq7oOQ8YefGgjCDpO06Y-60" value="" style="endArrow=none;html=1;rounded=0;exitX=0.5;exitY=0;exitDx=0;exitDy=0;entryX=0.75;entryY=1;entryDx=0;entryDy=0;" parent="1" source="Xq7oOQ8YefGgjCDpO06Y-58" target="hMLdqPmT3HCN_ug_1kss-23" edge="1">
          <mxGeometry width="50" height="50" relative="1" as="geometry">
            <mxPoint x="322" y="500" as="sourcePoint" />
            <mxPoint x="262" y="500" as="targetPoint" />
          </mxGeometry>
        </mxCell>
        <mxCell id="Xq7oOQ8YefGgjCDpO06Y-61" value="DataInizio" style="ellipse;whiteSpace=wrap;html=1;align=center;" parent="1" vertex="1">
          <mxGeometry x="60" y="60" width="100" height="40" as="geometry" />
        </mxCell>
        <mxCell id="Xq7oOQ8YefGgjCDpO06Y-62" value="DataFine" style="ellipse;whiteSpace=wrap;html=1;align=center;" parent="1" vertex="1">
          <mxGeometry x="210" y="60" width="100" height="40" as="geometry" />
        </mxCell>
        <mxCell id="Xq7oOQ8YefGgjCDpO06Y-63" value="PartiteGiocate" style="ellipse;whiteSpace=wrap;html=1;align=center;" parent="1" vertex="1">
          <mxGeometry x="60" y="180" width="100" height="40" as="geometry" />
        </mxCell>
        <mxCell id="Xq7oOQ8YefGgjCDpO06Y-64" value="GolSegnati" style="ellipse;whiteSpace=wrap;html=1;align=center;" parent="1" vertex="1">
          <mxGeometry x="180" y="180" width="100" height="40" as="geometry" />
        </mxCell>
        <mxCell id="Xq7oOQ8YefGgjCDpO06Y-65" value="GolSubiti" style="ellipse;whiteSpace=wrap;html=1;align=center;" parent="1" vertex="1">
          <mxGeometry x="-20" y="120" width="100" height="40" as="geometry" />
        </mxCell>
        <mxCell id="Xq7oOQ8YefGgjCDpO06Y-66" value="" style="endArrow=none;html=1;rounded=0;entryX=0.5;entryY=1;entryDx=0;entryDy=0;exitX=0;exitY=0;exitDx=0;exitDy=0;" parent="1" source="hMLdqPmT3HCN_ug_1kss-34" target="Xq7oOQ8YefGgjCDpO06Y-61" edge="1">
          <mxGeometry width="50" height="50" relative="1" as="geometry">
            <mxPoint x="140" y="335" as="sourcePoint" />
            <mxPoint x="20" y="325" as="targetPoint" />
          </mxGeometry>
        </mxCell>
        <mxCell id="Xq7oOQ8YefGgjCDpO06Y-67" value="" style="endArrow=none;html=1;rounded=0;entryX=0.5;entryY=1;entryDx=0;entryDy=0;exitX=1;exitY=0;exitDx=0;exitDy=0;" parent="1" source="hMLdqPmT3HCN_ug_1kss-34" target="Xq7oOQ8YefGgjCDpO06Y-62" edge="1">
          <mxGeometry width="50" height="50" relative="1" as="geometry">
            <mxPoint x="150" y="345" as="sourcePoint" />
            <mxPoint x="30" y="335" as="targetPoint" />
          </mxGeometry>
        </mxCell>
        <mxCell id="Xq7oOQ8YefGgjCDpO06Y-68" value="" style="endArrow=none;html=1;rounded=0;entryX=0;entryY=1;entryDx=0;entryDy=0;exitX=0.5;exitY=0;exitDx=0;exitDy=0;" parent="1" source="Xq7oOQ8YefGgjCDpO06Y-63" target="hMLdqPmT3HCN_ug_1kss-34" edge="1">
          <mxGeometry width="50" height="50" relative="1" as="geometry">
            <mxPoint x="160" y="355" as="sourcePoint" />
            <mxPoint x="40" y="345" as="targetPoint" />
          </mxGeometry>
        </mxCell>
        <mxCell id="Xq7oOQ8YefGgjCDpO06Y-69" value="" style="endArrow=none;html=1;rounded=0;entryX=1;entryY=1;entryDx=0;entryDy=0;exitX=0.5;exitY=0;exitDx=0;exitDy=0;" parent="1" source="Xq7oOQ8YefGgjCDpO06Y-64" target="hMLdqPmT3HCN_ug_1kss-34" edge="1">
          <mxGeometry width="50" height="50" relative="1" as="geometry">
            <mxPoint x="170" y="365" as="sourcePoint" />
            <mxPoint x="50" y="355" as="targetPoint" />
          </mxGeometry>
        </mxCell>
        <mxCell id="Xq7oOQ8YefGgjCDpO06Y-70" value="" style="endArrow=none;html=1;rounded=0;entryX=1;entryY=0.5;entryDx=0;entryDy=0;" parent="1" source="hMLdqPmT3HCN_ug_1kss-34" target="Xq7oOQ8YefGgjCDpO06Y-65" edge="1">
          <mxGeometry width="50" height="50" relative="1" as="geometry">
            <mxPoint x="180" y="375" as="sourcePoint" />
            <mxPoint x="60" y="365" as="targetPoint" />
          </mxGeometry>
        </mxCell>
        <mxCell id="ZBFHr1--clZ3QpbYTYpv-1" value="Appartiene" style="shape=rhombus;perimeter=rhombusPerimeter;whiteSpace=wrap;html=1;align=center;" parent="1" vertex="1">
          <mxGeometry x="310" y="-210" width="120" height="60" as="geometry" />
        </mxCell>
        <mxCell id="ZBFHr1--clZ3QpbYTYpv-2" value="Possiede" style="shape=rhombus;perimeter=rhombusPerimeter;whiteSpace=wrap;html=1;align=center;" parent="1" vertex="1">
          <mxGeometry x="130" y="-240" width="120" height="60" as="geometry" />
        </mxCell>
        <mxCell id="ZBFHr1--clZ3QpbYTYpv-3" value="" style="endArrow=none;html=1;rounded=0;entryX=0.5;entryY=0;entryDx=0;entryDy=0;exitX=0.5;exitY=1;exitDx=0;exitDy=0;" parent="1" source="ZBFHr1--clZ3QpbYTYpv-2" target="hMLdqPmT3HCN_ug_1kss-1" edge="1">
          <mxGeometry width="50" height="50" relative="1" as="geometry">
            <mxPoint x="270" y="-190" as="sourcePoint" />
            <mxPoint x="57" y="-310" as="targetPoint" />
          </mxGeometry>
        </mxCell>
        <mxCell id="ZBFHr1--clZ3QpbYTYpv-4" value="1...*" style="edgeLabel;html=1;align=center;verticalAlign=middle;resizable=0;points=[];" parent="ZBFHr1--clZ3QpbYTYpv-3" vertex="1" connectable="0">
          <mxGeometry x="0.7013" y="2" relative="1" as="geometry">
            <mxPoint as="offset" />
          </mxGeometry>
        </mxCell>
        <mxCell id="ZBFHr1--clZ3QpbYTYpv-5" value="" style="endArrow=none;html=1;rounded=0;entryX=1;entryY=0;entryDx=0;entryDy=0;exitX=0.5;exitY=1;exitDx=0;exitDy=0;" parent="1" source="ZBFHr1--clZ3QpbYTYpv-1" target="hMLdqPmT3HCN_ug_1kss-1" edge="1">
          <mxGeometry width="50" height="50" relative="1" as="geometry">
            <mxPoint x="210" y="-220" as="sourcePoint" />
            <mxPoint x="67" y="-300" as="targetPoint" />
          </mxGeometry>
        </mxCell>
        <mxCell id="ZBFHr1--clZ3QpbYTYpv-6" value="1...*" style="edgeLabel;html=1;align=center;verticalAlign=middle;resizable=0;points=[];" parent="ZBFHr1--clZ3QpbYTYpv-5" vertex="1" connectable="0">
          <mxGeometry x="0.7013" y="2" relative="1" as="geometry">
            <mxPoint as="offset" />
          </mxGeometry>
        </mxCell>
        <mxCell id="ZBFHr1--clZ3QpbYTYpv-7" value="Appartiene" style="shape=rhombus;perimeter=rhombusPerimeter;whiteSpace=wrap;html=1;align=center;" parent="1" vertex="1">
          <mxGeometry x="490" y="-180" width="120" height="60" as="geometry" />
        </mxCell>
        <mxCell id="ZBFHr1--clZ3QpbYTYpv-8" value="Descrizione" style="ellipse;whiteSpace=wrap;html=1;align=center;" parent="1" vertex="1">
          <mxGeometry x="600" y="700" width="100" height="40" as="geometry" />
        </mxCell>
        <mxCell id="ZBFHr1--clZ3QpbYTYpv-9" value="" style="endArrow=none;html=1;rounded=0;exitX=0.5;exitY=1;exitDx=0;exitDy=0;entryX=0.5;entryY=0;entryDx=0;entryDy=0;" parent="1" source="hMLdqPmT3HCN_ug_1kss-23" target="ZBFHr1--clZ3QpbYTYpv-8" edge="1">
          <mxGeometry width="50" height="50" relative="1" as="geometry">
            <mxPoint x="792" y="710" as="sourcePoint" />
            <mxPoint x="719" y="680" as="targetPoint" />
          </mxGeometry>
        </mxCell>
        <mxCell id="ZBFHr1--clZ3QpbYTYpv-10" value="Possiede" style="shape=rhombus;perimeter=rhombusPerimeter;whiteSpace=wrap;html=1;align=center;" parent="1" vertex="1">
          <mxGeometry x="670" y="-180" width="120" height="60" as="geometry" />
        </mxCell>
        <mxCell id="ZBFHr1--clZ3QpbYTYpv-11" value="" style="endArrow=none;html=1;rounded=0;exitX=1;exitY=0.5;exitDx=0;exitDy=0;" parent="1" source="hMLdqPmT3HCN_ug_1kss-3" edge="1">
          <mxGeometry width="50" height="50" relative="1" as="geometry">
            <mxPoint x="340" y="-310" as="sourcePoint" />
            <mxPoint x="730" y="-300" as="targetPoint" />
          </mxGeometry>
        </mxCell>
        <mxCell id="ZBFHr1--clZ3QpbYTYpv-16" value="1" style="edgeLabel;html=1;align=center;verticalAlign=middle;resizable=0;points=[];" parent="ZBFHr1--clZ3QpbYTYpv-11" vertex="1" connectable="0">
          <mxGeometry x="-0.8968" y="-2" relative="1" as="geometry">
            <mxPoint x="-1" as="offset" />
          </mxGeometry>
        </mxCell>
        <mxCell id="ZBFHr1--clZ3QpbYTYpv-12" value="" style="endArrow=none;html=1;rounded=0;entryX=0.5;entryY=0;entryDx=0;entryDy=0;" parent="1" target="ZBFHr1--clZ3QpbYTYpv-7" edge="1">
          <mxGeometry width="50" height="50" relative="1" as="geometry">
            <mxPoint x="550" y="-300" as="sourcePoint" />
            <mxPoint x="450" y="-380" as="targetPoint" />
          </mxGeometry>
        </mxCell>
        <mxCell id="ZBFHr1--clZ3QpbYTYpv-13" value="" style="endArrow=none;html=1;rounded=0;entryX=0.5;entryY=0;entryDx=0;entryDy=0;" parent="1" target="ZBFHr1--clZ3QpbYTYpv-10" edge="1">
          <mxGeometry width="50" height="50" relative="1" as="geometry">
            <mxPoint x="730" y="-300" as="sourcePoint" />
            <mxPoint x="460" y="-370" as="targetPoint" />
          </mxGeometry>
        </mxCell>
        <mxCell id="ZBFHr1--clZ3QpbYTYpv-14" value="" style="endArrow=none;html=1;rounded=0;exitX=0.5;exitY=1;exitDx=0;exitDy=0;entryX=1;entryY=0;entryDx=0;entryDy=0;" parent="1" source="ZBFHr1--clZ3QpbYTYpv-7" target="hMLdqPmT3HCN_ug_1kss-22" edge="1">
          <mxGeometry width="50" height="50" relative="1" as="geometry">
            <mxPoint x="370" y="-280" as="sourcePoint" />
            <mxPoint x="390" y="160" as="targetPoint" />
          </mxGeometry>
        </mxCell>
        <mxCell id="ZBFHr1--clZ3QpbYTYpv-17" value="1...*" style="edgeLabel;html=1;align=center;verticalAlign=middle;resizable=0;points=[];" parent="ZBFHr1--clZ3QpbYTYpv-14" vertex="1" connectable="0">
          <mxGeometry x="0.9028" y="-3" relative="1" as="geometry">
            <mxPoint as="offset" />
          </mxGeometry>
        </mxCell>
        <mxCell id="ZBFHr1--clZ3QpbYTYpv-15" value="" style="endArrow=none;html=1;rounded=0;entryX=0.75;entryY=0;entryDx=0;entryDy=0;exitX=0.5;exitY=1;exitDx=0;exitDy=0;" parent="1" source="ZBFHr1--clZ3QpbYTYpv-10" target="hMLdqPmT3HCN_ug_1kss-24" edge="1">
          <mxGeometry width="50" height="50" relative="1" as="geometry">
            <mxPoint x="380" y="-270" as="sourcePoint" />
            <mxPoint x="480" y="-350" as="targetPoint" />
          </mxGeometry>
        </mxCell>
        <mxCell id="ZBFHr1--clZ3QpbYTYpv-18" value="1...*" style="edgeLabel;html=1;align=center;verticalAlign=middle;resizable=0;points=[];" parent="ZBFHr1--clZ3QpbYTYpv-15" vertex="1" connectable="0">
          <mxGeometry x="0.8099" y="2" relative="1" as="geometry">
            <mxPoint y="1" as="offset" />
          </mxGeometry>
        </mxCell>
        <mxCell id="ZBFHr1--clZ3QpbYTYpv-19" value="Descrizione" style="ellipse;whiteSpace=wrap;html=1;align=center;" parent="1" vertex="1">
          <mxGeometry x="547" y="355" width="100" height="40" as="geometry" />
        </mxCell>
        <mxCell id="ZBFHr1--clZ3QpbYTYpv-20" value="" style="endArrow=none;html=1;rounded=0;exitX=0.5;exitY=0;exitDx=0;exitDy=0;entryX=0;entryY=1;entryDx=0;entryDy=0;" parent="1" source="ZBFHr1--clZ3QpbYTYpv-19" target="hMLdqPmT3HCN_ug_1kss-24" edge="1">
          <mxGeometry width="50" height="50" relative="1" as="geometry">
            <mxPoint x="719" y="680" as="sourcePoint" />
            <mxPoint x="642" y="710" as="targetPoint" />
          </mxGeometry>
        </mxCell>
        <mxCell id="aoPOcLAm972nOrq8E4EA-1" value="Sesso" style="ellipse;whiteSpace=wrap;html=1;align=center;" parent="1" vertex="1">
          <mxGeometry x="-40" y="-40" width="100" height="40" as="geometry" />
        </mxCell>
        <mxCell id="aoPOcLAm972nOrq8E4EA-2" value="" style="endArrow=none;html=1;rounded=0;entryX=1;entryY=0.5;entryDx=0;entryDy=0;exitX=0;exitY=0.75;exitDx=0;exitDy=0;" parent="1" source="hMLdqPmT3HCN_ug_1kss-1" target="aoPOcLAm972nOrq8E4EA-1" edge="1">
          <mxGeometry width="50" height="50" relative="1" as="geometry">
            <mxPoint x="140" y="-20" as="sourcePoint" />
            <mxPoint x="110" y="10" as="targetPoint" />
          </mxGeometry>
        </mxCell>
        <mxCell id="aoPOcLAm972nOrq8E4EA-3" value="Categoria" style="ellipse;whiteSpace=wrap;html=1;align=center;" parent="1" vertex="1">
          <mxGeometry x="80" y="400" width="100" height="40" as="geometry" />
        </mxCell>
        <mxCell id="aoPOcLAm972nOrq8E4EA-4" value="" style="endArrow=none;html=1;rounded=0;entryX=0.5;entryY=0;entryDx=0;entryDy=0;exitX=0.25;exitY=1;exitDx=0;exitDy=0;" parent="1" source="hMLdqPmT3HCN_ug_1kss-22" target="aoPOcLAm972nOrq8E4EA-3" edge="1">
          <mxGeometry width="50" height="50" relative="1" as="geometry">
            <mxPoint x="140" y="360" as="sourcePoint" />
            <mxPoint x="85" y="394" as="targetPoint" />
          </mxGeometry>
        </mxCell>
        <mxCell id="aoPOcLAm972nOrq8E4EA-5" value="Categoria" style="ellipse;whiteSpace=wrap;html=1;align=center;" parent="1" vertex="1">
          <mxGeometry x="727" y="370" width="100" height="40" as="geometry" />
        </mxCell>
        <mxCell id="aoPOcLAm972nOrq8E4EA-6" value="" style="endArrow=none;html=1;rounded=0;entryX=0.5;entryY=0;entryDx=0;entryDy=0;exitX=0.75;exitY=1;exitDx=0;exitDy=0;" parent="1" source="hMLdqPmT3HCN_ug_1kss-24" target="aoPOcLAm972nOrq8E4EA-5" edge="1">
          <mxGeometry width="50" height="50" relative="1" as="geometry">
            <mxPoint x="622" y="425" as="sourcePoint" />
            <mxPoint x="552" y="469" as="targetPoint" />
          </mxGeometry>
        </mxCell>
        <mxCell id="aoPOcLAm972nOrq8E4EA-7" value="Categoria" style="ellipse;whiteSpace=wrap;html=1;align=center;" parent="1" vertex="1">
          <mxGeometry x="470" y="690" width="100" height="40" as="geometry" />
        </mxCell>
        <mxCell id="aoPOcLAm972nOrq8E4EA-8" value="" style="endArrow=none;html=1;rounded=0;entryX=0.5;entryY=0;entryDx=0;entryDy=0;exitX=0;exitY=0.75;exitDx=0;exitDy=0;" parent="1" source="hMLdqPmT3HCN_ug_1kss-23" target="aoPOcLAm972nOrq8E4EA-7" edge="1">
          <mxGeometry width="50" height="50" relative="1" as="geometry">
            <mxPoint x="657" y="650" as="sourcePoint" />
            <mxPoint x="462" y="674" as="targetPoint" />
          </mxGeometry>
        </mxCell>
        <mxCell id="aoPOcLAm972nOrq8E4EA-9" value="Categoria" style="ellipse;whiteSpace=wrap;html=1;align=center;" parent="1" vertex="1">
          <mxGeometry x="-463" y="10" width="100" height="30" as="geometry" />
        </mxCell>
        <mxCell id="aoPOcLAm972nOrq8E4EA-10" value="" style="endArrow=none;html=1;rounded=0;entryX=0.5;entryY=0;entryDx=0;entryDy=0;exitX=0.25;exitY=1;exitDx=0;exitDy=0;" parent="1" source="Xq7oOQ8YefGgjCDpO06Y-4" target="aoPOcLAm972nOrq8E4EA-9" edge="1">
          <mxGeometry width="50" height="50" relative="1" as="geometry">
            <mxPoint x="-388" y="10" as="sourcePoint" />
            <mxPoint x="-458" y="54" as="targetPoint" />
          </mxGeometry>
        </mxCell>
        <mxCell id="oSSnQwEtRYx27z4M9-A3-1" value="Amministratore" style="rounded=0;whiteSpace=wrap;html=1;" parent="1" vertex="1">
          <mxGeometry x="-310" y="135" width="110" height="30" as="geometry" />
        </mxCell>
        <mxCell id="oSSnQwEtRYx27z4M9-A3-3" value="Password" style="ellipse;whiteSpace=wrap;html=1;align=center;" parent="1" vertex="1">
          <mxGeometry x="-305" y="185" width="100" height="30" as="geometry" />
        </mxCell>
        <mxCell id="oSSnQwEtRYx27z4M9-A3-4" value="" style="endArrow=none;html=1;rounded=0;entryX=0.5;entryY=0;entryDx=0;entryDy=0;exitX=0.5;exitY=1;exitDx=0;exitDy=0;" parent="1" target="oSSnQwEtRYx27z4M9-A3-1" edge="1">
          <mxGeometry relative="1" as="geometry">
            <mxPoint x="-255" y="120" as="sourcePoint" />
            <mxPoint x="68" y="135" as="targetPoint" />
          </mxGeometry>
        </mxCell>
        <mxCell id="oSSnQwEtRYx27z4M9-A3-5" value="" style="endArrow=none;html=1;rounded=0;entryX=0.5;entryY=1;entryDx=0;entryDy=0;exitX=0.5;exitY=0;exitDx=0;exitDy=0;" parent="1" source="oSSnQwEtRYx27z4M9-A3-3" target="oSSnQwEtRYx27z4M9-A3-1" edge="1">
          <mxGeometry relative="1" as="geometry">
            <mxPoint x="31" y="114" as="sourcePoint" />
            <mxPoint x="78" y="145" as="targetPoint" />
          </mxGeometry>
        </mxCell>
        <mxCell id="oSSnQwEtRYx27z4M9-A3-6" value="Gestisce" style="shape=rhombus;perimeter=rhombusPerimeter;whiteSpace=wrap;html=1;align=center;" parent="1" vertex="1">
          <mxGeometry x="-140" y="70" width="120" height="60" as="geometry" />
        </mxCell>
        <mxCell id="oSSnQwEtRYx27z4M9-A3-7" value="" style="endArrow=none;html=1;rounded=0;exitX=0;exitY=0.5;exitDx=0;exitDy=0;entryX=1;entryY=0.5;entryDx=0;entryDy=0;" parent="1" source="oSSnQwEtRYx27z4M9-A3-6" target="oSSnQwEtRYx27z4M9-A3-1" edge="1">
          <mxGeometry relative="1" as="geometry">
            <mxPoint x="-190" y="-40" as="sourcePoint" />
            <mxPoint x="-300" y="-40" as="targetPoint" />
          </mxGeometry>
        </mxCell>
        <mxCell id="oSSnQwEtRYx27z4M9-A3-11" value="*" style="edgeLabel;html=1;align=center;verticalAlign=middle;resizable=0;points=[];" parent="oSSnQwEtRYx27z4M9-A3-7" vertex="1" connectable="0">
          <mxGeometry x="0.6773" y="-1" relative="1" as="geometry">
            <mxPoint as="offset" />
          </mxGeometry>
        </mxCell>
        <mxCell id="oSSnQwEtRYx27z4M9-A3-9" value="" style="endArrow=none;html=1;rounded=0;exitX=0;exitY=1;exitDx=0;exitDy=0;" parent="1" source="hMLdqPmT3HCN_ug_1kss-1" target="oSSnQwEtRYx27z4M9-A3-6" edge="1">
          <mxGeometry relative="1" as="geometry">
            <mxPoint x="-180" y="-30" as="sourcePoint" />
            <mxPoint x="-290" y="-30" as="targetPoint" />
          </mxGeometry>
        </mxCell>
        <mxCell id="oSSnQwEtRYx27z4M9-A3-12" value="*" style="edgeLabel;html=1;align=center;verticalAlign=middle;resizable=0;points=[];" parent="oSSnQwEtRYx27z4M9-A3-9" vertex="1" connectable="0">
          <mxGeometry x="-0.8533" y="-3" relative="1" as="geometry">
            <mxPoint as="offset" />
          </mxGeometry>
        </mxCell>
        <mxCell id="oSSnQwEtRYx27z4M9-A3-13" value="&lt;u&gt;Username&lt;/u&gt;" style="ellipse;whiteSpace=wrap;html=1;align=center;" parent="1" vertex="1">
          <mxGeometry x="-305" y="80" width="100" height="40" as="geometry" />
        </mxCell>
      </root>
    </mxGraphModel>
  </diagram>
</mxfile>
